<svg xmlns="http://www.w3.org/2000/svg" xmlns:xlink="http://www.w3.org/1999/xlink" width="64" zoomAndPan="magnify" viewBox="0 0 48 48" height="64" preserveAspectRatio="xMidYMid meet" version="1.0"><defs><g><g id="id1"/></g></defs><g fill="rgb(23.139954%, 40.779114%, 30.198669%)" fill-opacity="1"><g transform="translate(4.467474, 34.630191)"><g><path d="M 11.453125 0.359375 C 9.390625 0.359375 7.609375 -0.09375 6.109375 -1 C 4.617188 -1.914062 3.460938 -3.191406 2.640625 -4.828125 C 1.816406 -6.460938 1.40625 -8.363281 1.40625 -10.53125 C 1.40625 -12.675781 1.816406 -14.566406 2.640625 -16.203125 C 3.460938 -17.835938 4.617188 -19.113281 6.109375 -20.03125 C 7.609375 -20.957031 9.390625 -21.421875 11.453125 -21.421875 C 13.859375 -21.421875 15.816406 -20.84375 17.328125 -19.6875 C 18.847656 -18.53125 19.820312 -16.921875 20.25 -14.859375 L 17.453125 -14.859375 C 17.128906 -16.160156 16.46875 -17.207031 15.46875 -18 C 14.476562 -18.789062 13.140625 -19.1875 11.453125 -19.1875 C 9.953125 -19.1875 8.640625 -18.835938 7.515625 -18.140625 C 6.390625 -17.453125 5.519531 -16.460938 4.90625 -15.171875 C 4.300781 -13.878906 4 -12.332031 4 -10.53125 C 4 -8.726562 4.300781 -7.175781 4.90625 -5.875 C 5.519531 -4.582031 6.390625 -3.585938 7.515625 -2.890625 C 8.640625 -2.203125 9.953125 -1.859375 11.453125 -1.859375 C 13.140625 -1.859375 14.476562 -2.242188 15.46875 -3.015625 C 16.46875 -3.796875 17.128906 -4.828125 17.453125 -6.109375 L 20.25 -6.109375 C 19.820312 -4.078125 18.847656 -2.488281 17.328125 -1.34375 C 15.816406 -0.207031 13.859375 0.359375 11.453125 0.359375 Z M 11.453125 0.359375 "/></g></g></g><g fill="rgb(23.139954%, 40.779114%, 30.198669%)" fill-opacity="1"><g transform="translate(26.11434, 34.630191)"><g><path d="M 2.21875 0 L 2.21875 -21.0625 L 9.140625 -21.0625 C 10.785156 -21.0625 12.140625 -20.789062 13.203125 -20.25 C 14.265625 -19.707031 15.050781 -18.972656 15.5625 -18.046875 C 16.070312 -17.117188 16.328125 -16.078125 16.328125 -14.921875 C 16.328125 -13.773438 16.078125 -12.738281 15.578125 -11.8125 C 15.078125 -10.894531 14.296875 -10.160156 13.234375 -9.609375 C 12.171875 -9.054688 10.804688 -8.78125 9.140625 -8.78125 L 4.75 -8.78125 L 4.75 0 Z M 4.75 -10.921875 L 9.078125 -10.921875 C 10.765625 -10.921875 11.960938 -11.273438 12.671875 -11.984375 C 13.390625 -12.691406 13.75 -13.671875 13.75 -14.921875 C 13.75 -16.179688 13.390625 -17.164062 12.671875 -17.875 C 11.960938 -18.59375 10.765625 -18.953125 9.078125 -18.953125 L 4.75 -18.953125 Z M 4.75 -10.921875 "/></g></g></g></svg>